<svg width="96" height="112" viewBox="0 0 96 112" fill="none" xmlns="http://www.w3.org/2000/svg">
<path d="M94.2077 22.1505L73.7821 1.78691C73.2126 1.21978 72.5366 0.770063 71.7928 0.463459C71.0489 0.156855 70.2517 -0.00062915 69.4468 1.88893e-06H28.5957C25.8871 1.88893e-06 23.2895 1.07273 21.3742 2.98219C19.459 4.89165 18.383 7.48143 18.383 10.1818V20.3636H10.2128C7.50417 20.3636 4.90652 21.4364 2.99125 23.3458C1.07598 25.2553 0 27.8451 0 30.5455V101.818C0 104.519 1.07598 107.108 2.99125 109.018C4.90652 110.927 7.50417 112 10.2128 112H65.3617C68.0703 112 70.668 110.927 72.5832 109.018C74.4985 107.108 75.5745 104.519 75.5745 101.818V91.6364H85.7872C88.4958 91.6364 91.0935 90.5636 93.0088 88.6542C94.924 86.7447 96 84.1549 96 81.4545V26.4727C96.0006 25.6702 95.8427 24.8755 95.5351 24.1339C95.2276 23.3923 94.7765 22.7183 94.2077 22.1505ZM63.3191 99.7818H12.2553V32.5818H46.4681L63.3191 49.3818V99.7818ZM83.7447 79.4182H75.5745V46.8364C75.5751 46.0339 75.4171 45.2391 75.1096 44.4975C74.8021 43.7559 74.351 43.0819 73.7821 42.5142L53.3566 22.1505C52.7871 21.5834 52.1111 21.1337 51.3672 20.8271C50.6234 20.5205 49.8262 20.363 49.0213 20.3636H30.6383V12.2182H66.8936L83.7447 29.0182V79.4182ZM55.1489 65.1636C55.1489 66.7839 54.5033 68.3377 53.3542 69.4834C52.205 70.6291 50.6464 71.2727 49.0213 71.2727H26.5532C24.928 71.2727 23.3694 70.6291 22.2203 69.4834C21.0711 68.3377 20.4255 66.7839 20.4255 65.1636C20.4255 63.5434 21.0711 61.9895 22.2203 60.8439C23.3694 59.6982 24.928 59.0545 26.5532 59.0545H49.0213C50.6464 59.0545 52.205 59.6982 53.3542 60.8439C54.5033 61.9895 55.1489 63.5434 55.1489 65.1636ZM55.1489 85.5273C55.1489 87.1475 54.5033 88.7014 53.3542 89.847C52.205 90.9927 50.6464 91.6364 49.0213 91.6364H26.5532C24.928 91.6364 23.3694 90.9927 22.2203 89.847C21.0711 88.7014 20.4255 87.1475 20.4255 85.5273C20.4255 83.907 21.0711 82.3532 22.2203 81.2075C23.3694 80.0618 24.928 79.4182 26.5532 79.4182H49.0213C50.6464 79.4182 52.205 80.0618 53.3542 81.2075C54.5033 82.3532 55.1489 83.907 55.1489 85.5273Z" fill="#5AAC1C"/>
</svg>
