<svg width="96" height="112" viewBox="0 0 96 112" fill="none" xmlns="http://www.w3.org/2000/svg">
<path d="M75.1306 106.208C75.1306 107.744 74.471 109.217 73.2968 110.303C72.1227 111.39 70.5302 112 68.8698 112H27.1309C25.4705 112 23.878 111.39 22.7039 110.303C21.5297 109.217 20.8701 107.744 20.8701 106.208C20.8701 104.671 21.5297 103.198 22.7039 102.112C23.878 101.025 25.4705 100.415 27.1309 100.415H68.8698C70.5302 100.415 72.1227 101.025 73.2968 102.112C74.471 103.198 75.1306 104.671 75.1306 106.208ZM96 44.4215C95.9794 51.3314 94.2251 58.1425 90.8752 64.3184C87.5254 70.4942 82.6715 75.8662 76.6958 80.0112C76.2001 80.3697 75.8008 80.8295 75.5292 81.3545C75.2577 81.8796 75.1212 82.4558 75.1306 83.0378C75.1306 84.3056 74.8607 85.561 74.3363 86.7323C73.8119 87.9035 73.0433 88.9678 72.0743 89.8643C71.1054 90.7607 69.9551 91.4718 68.6891 91.957C67.4231 92.4422 66.0662 92.6919 64.6959 92.6919H31.3048C29.9345 92.6919 28.5776 92.4422 27.3116 91.957C26.0456 91.4718 24.8953 90.7607 23.9264 89.8643C22.9574 88.9678 22.1888 87.9035 21.6644 86.7323C21.14 85.561 20.8701 84.3056 20.8701 83.0378V82.9268C20.8607 82.3399 20.7023 81.7633 20.4078 81.2435C20.1132 80.7236 19.6908 80.2751 19.1745 79.934C13.241 75.841 8.41925 70.5258 5.09122 64.4096C1.7632 58.2934 0.0203323 51.5442 0.000704247 44.6967C-0.140164 20.6194 20.8701 0.59206 46.8473 0.0128156C53.2471 -0.129458 59.613 0.914093 65.5703 3.08205C71.5276 5.25001 76.956 8.49858 81.536 12.6366C86.1161 16.7745 89.7552 21.7183 92.2392 27.177C94.7231 32.6356 96.0018 38.4988 96 44.4215ZM83.4783 44.4215C83.4797 40.0432 82.5343 35.7088 80.6978 31.6737C78.8613 27.6385 76.1708 23.984 72.7846 20.9254C69.3984 17.8668 65.3851 15.4658 60.9809 13.8639C56.5766 12.262 51.8705 11.4915 47.1395 11.5977C27.9448 12.0273 12.418 26.8318 12.5224 44.6098C12.5341 49.6753 13.8218 54.6685 16.2834 59.1932C18.745 63.7178 22.3126 67.6494 26.7031 70.6758C28.4959 71.9201 30.0009 73.4843 31.1291 75.276C32.2573 77.0677 32.9859 79.0504 33.2718 81.107H41.7395V66.1432L26.8753 52.3813C26.2929 51.8425 25.8309 51.2028 25.5158 50.4988C25.2006 49.7949 25.0384 49.0403 25.0384 48.2783C25.0384 46.7394 25.6991 45.2635 26.8753 44.1753C28.0515 43.0872 29.6467 42.4758 31.31 42.4758C32.9734 42.4758 34.5686 43.0872 35.7448 44.1753L48.0004 55.5237L60.2663 44.1753C61.4425 43.0872 63.0377 42.4758 64.7011 42.4758C66.3644 42.4758 67.9597 43.0872 69.1358 44.1753C70.312 45.2635 70.9728 46.7394 70.9728 48.2783C70.9728 49.8172 70.312 51.2931 69.1358 52.3813L54.2612 66.1432V81.107H62.7394C63.0145 79.0653 63.7293 77.0955 64.8414 75.3138C65.9535 73.532 67.4404 71.9747 69.2141 70.7337C73.6583 67.6925 77.2656 63.7256 79.7438 59.1542C82.222 54.5828 83.5014 49.5356 83.4783 44.4215Z" fill="#5AAC1C"/>
</svg>
