<svg width="96" height="112" viewBox="0 0 96 112" fill="none" xmlns="http://www.w3.org/2000/svg">
<path d="M91.0345 1.26417e-06H61.2414C58.7597 -0.00107623 56.3042 0.686654 54.0267 2.02069C51.7492 3.35472 49.698 5.3067 48 7.756C46.302 5.3067 44.2508 3.35472 41.9733 2.02069C39.6958 0.686654 37.2403 -0.00107623 34.7586 1.26417e-06H4.96552C3.64858 1.26417e-06 2.38558 0.707998 1.45437 1.96824C0.523151 3.22849 0 4.93775 0 6.72V87.36C0 89.1423 0.523151 90.8515 1.45437 92.1118C2.38558 93.372 3.64858 94.08 4.96552 94.08H34.7586C36.9535 94.08 39.0585 95.26 40.6105 97.3604C42.1626 99.4608 43.0345 102.31 43.0345 105.28C43.0345 107.062 43.5576 108.772 44.4888 110.032C45.4201 111.292 46.6831 112 48 112C49.3169 112 50.5799 111.292 51.5112 110.032C52.4424 108.772 52.9655 107.062 52.9655 105.28C52.9655 102.31 53.8374 99.4608 55.3895 97.3604C56.9415 95.26 59.0465 94.08 61.2414 94.08H91.0345C92.3514 94.08 93.6144 93.372 94.5456 92.1118C95.4769 90.8515 96 89.1423 96 87.36V6.72C96 4.93775 95.4769 3.22849 94.5456 1.96824C93.6144 0.707998 92.3514 1.26417e-06 91.0345 1.26417e-06ZM34.7586 80.64H9.93104V13.44H34.7586C36.9535 13.44 39.0585 14.62 40.6105 16.7204C42.1626 18.8208 43.0345 21.6696 43.0345 24.64V83.3336C40.473 81.5592 37.6361 80.6358 34.7586 80.64ZM86.069 80.64H61.2414C58.363 80.6376 55.5258 81.5649 52.9655 83.3448V24.64C52.9655 21.6696 53.8374 18.8208 55.3895 16.7204C56.9415 14.62 59.0465 13.44 61.2414 13.44H86.069V80.64ZM62.8966 29.12H76.1379C77.4549 29.12 78.7179 29.828 79.6491 31.0882C80.5803 32.3485 81.1035 34.0577 81.1035 35.84C81.1035 37.6223 80.5803 39.3315 79.6491 40.5918C78.7179 41.852 77.4549 42.56 76.1379 42.56H62.8966C61.5796 42.56 60.3166 41.852 59.3854 40.5918C58.4542 39.3315 57.931 37.6223 57.931 35.84C57.931 34.0577 58.4542 32.3485 59.3854 31.0882C60.3166 29.828 61.5796 29.12 62.8966 29.12ZM81.1035 58.24C81.1035 60.0223 80.5803 61.7315 79.6491 62.9918C78.7179 64.252 77.4549 64.96 76.1379 64.96H62.8966C61.5796 64.96 60.3166 64.252 59.3854 62.9918C58.4542 61.7315 57.931 60.0223 57.931 58.24C57.931 56.4577 58.4542 54.7485 59.3854 53.4882C60.3166 52.228 61.5796 51.52 62.8966 51.52H76.1379C77.4549 51.52 78.7179 52.228 79.6491 53.4882C80.5803 54.7485 81.1035 56.4577 81.1035 58.24Z" fill="#5AAC1C"/>
</svg>
