<svg width="96" height="112" viewBox="0 0 96 112" fill="none" xmlns="http://www.w3.org/2000/svg">
<path d="M48 0C38.5065 0 29.2262 3.28434 21.3326 9.4377C13.4391 15.5911 7.28681 24.3371 3.6538 34.5697C0.0207977 44.8024 -0.929762 56.0621 0.922328 66.925C2.77442 77.788 7.34598 87.7662 14.0589 95.598C20.7718 103.43 29.3246 108.763 38.6357 110.924C47.9468 113.085 57.598 111.976 66.3688 107.737C75.1397 103.499 82.6362 96.3211 87.9105 87.1119C93.1849 77.9028 96 67.0757 96 56C95.9859 41.1529 90.9242 26.9187 81.9255 16.4202C72.9269 5.92174 60.7261 0.0164693 48 0ZM48 96.9629C44.0702 91.5971 41.0005 85.4497 38.9378 78.8148H57.08C55.9062 82.5667 54.4174 86.1741 52.6356 89.5844C51.2644 92.1865 49.7141 94.6542 48 96.9629ZM36.2267 66.3704C35.3467 59.4949 35.3467 52.5051 36.2267 45.6296H59.7822C60.6622 52.5051 60.6622 59.4949 59.7822 66.3704H36.2267ZM10.6667 56C10.6666 52.505 11.0292 49.0229 11.7467 45.6296H25.4445C24.7037 52.5162 24.7037 59.4838 25.4445 66.3704H11.7467C11.0292 62.9771 10.6666 59.495 10.6667 56ZM48 15.037C51.9298 20.4029 54.9995 26.5503 57.0622 33.1852H38.9289C40.1027 29.4333 41.5915 25.8259 43.3733 22.4156C44.7416 19.8138 46.2889 17.3462 48 15.037ZM70.5467 45.6296H84.2445C85.6844 52.4411 85.6844 59.5588 84.2445 66.3704H70.5556C71.2963 59.4838 71.2963 52.5162 70.5556 45.6296H70.5467ZM79.7778 33.1852H68.3156C66.714 26.9131 64.397 20.9206 61.4267 15.3689C69.045 18.8192 75.491 25.0743 79.7867 33.1852H79.7778ZM34.5733 15.3689C31.6031 20.9206 29.286 26.9131 27.6845 33.1852H16.2134C20.509 25.0743 26.955 18.8192 34.5733 15.3689ZM16.2134 78.8148H27.6845C29.286 85.0869 31.6031 91.0793 34.5733 96.6311C26.955 93.1807 20.509 86.9257 16.2134 78.8148ZM61.4267 96.6311C64.397 91.0793 66.714 85.0869 68.3156 78.8148H79.7867C75.491 86.9257 69.045 93.1807 61.4267 96.6311Z" fill="#5AAC1C"/>
</svg>
