<svg width="96" height="112" viewBox="0 0 96 112" fill="none" xmlns="http://www.w3.org/2000/svg">
<path d="M62.0825 83.307C64.9399 78.9018 66.8991 73.2564 67.7103 67.0908C68.5215 60.9252 68.1478 54.5189 66.6369 48.689C65.126 42.8592 62.5464 37.8701 59.2272 34.3582C55.9079 30.8463 51.9995 28.9707 48.0005 28.9707C44.0014 28.9707 40.093 30.8463 36.7738 34.3582C33.4545 37.8701 30.8749 42.8592 29.3641 48.689C27.8532 54.5189 27.4795 60.9252 28.2906 67.0908C29.1018 73.2564 31.061 78.9018 33.9184 83.307C29.0805 87.3561 25.0582 93.4549 22.306 100.914C21.7166 102.591 21.5688 104.565 21.8945 106.412C22.2201 108.259 22.9931 109.83 24.0473 110.789C25.1014 111.747 26.3523 112.016 27.5309 111.537C28.7096 111.058 29.7217 109.87 30.3495 108.228C32.1646 103.399 34.7472 99.3984 37.8429 96.6193C40.9387 93.8403 44.4408 92.3787 48.0043 92.3787C51.5679 92.3787 55.07 93.8403 58.1658 96.6193C61.2615 99.3984 63.8441 103.399 65.6591 108.228C65.9579 109.078 66.3614 109.826 66.8458 110.428C67.3302 111.03 67.886 111.473 68.4806 111.733C69.0752 111.993 69.6968 112.064 70.309 111.942C70.9212 111.819 71.5117 111.506 72.0462 111.02C72.5806 110.534 73.0481 109.885 73.4215 109.112C73.7949 108.338 74.0667 107.455 74.2209 106.514C74.3751 105.573 74.4087 104.594 74.3197 103.632C74.2308 102.671 74.021 101.747 73.7027 100.914C70.9484 93.4532 66.9233 87.3543 62.0825 83.307ZM37.1622 60.6961C37.1622 57.321 37.7978 54.0216 38.9888 51.2153C40.1797 48.409 41.8724 46.2218 43.8528 44.9302C45.8333 43.6386 48.0125 43.3007 50.1149 43.9591C52.2173 44.6176 54.1485 46.2428 55.6643 48.6294C57.1801 51.016 58.2123 54.0566 58.6305 57.3669C59.0487 60.6771 58.8341 64.1083 58.0137 67.2265C57.1934 70.3447 55.8042 73.0098 54.0219 74.8849C52.2396 76.7601 50.1441 77.7609 48.0005 77.7609C45.126 77.7609 42.3692 75.963 40.3366 72.7627C38.3041 69.5624 37.1622 65.2219 37.1622 60.6961ZM94.1445 66.5408C93.6566 67.1183 93.1012 67.5387 92.5101 67.7781C91.9189 68.0175 91.3036 68.071 90.6993 67.9358C90.095 67.8005 89.5136 67.479 88.9882 66.9897C88.4629 66.5004 88.0039 65.8529 87.6376 65.0842C84.4132 58.3253 79.9541 53.1449 76.2845 51.8955C75.3088 51.5632 74.427 50.7448 73.7698 49.5616C73.1127 48.3784 72.7151 46.8933 72.636 45.3264C72.557 43.7595 72.8007 42.1943 73.3309 40.8625C73.8612 39.5308 74.6498 38.5034 75.58 37.9328C76.7381 37.221 77.7703 36.0805 78.5893 34.6079C79.4083 33.1352 79.99 31.3737 80.2852 29.4722C80.5804 27.5708 80.5804 25.5853 80.2852 23.6839C79.99 21.7824 79.4083 20.0209 78.5893 18.5482C77.7703 17.0756 76.7381 15.9351 75.58 15.2233C74.4219 14.5115 73.172 14.2494 71.9359 14.459C70.6999 14.6686 69.514 15.3438 68.4788 16.4275C67.4435 17.5113 66.5892 18.9716 65.9882 20.6851C65.7031 21.5534 65.3104 22.323 64.8333 22.9483C64.3562 23.5736 63.8043 24.042 63.2102 24.3257C62.6161 24.6095 61.992 24.7029 61.3746 24.6004C60.7572 24.4979 60.1592 24.2016 59.6158 23.7289C59.0724 23.2563 58.5947 22.617 58.2109 21.8488C57.8271 21.0805 57.5449 20.1989 57.3812 19.2561C57.2175 18.3133 57.1754 17.3284 57.2576 16.3595C57.3397 15.3907 57.5444 14.4576 57.8594 13.6154C59.0088 10.4154 60.5638 7.62172 62.4279 5.40783C64.2919 3.19395 66.4251 1.60716 68.695 0.746044C70.9649 -0.115075 73.3231 -0.232135 75.6229 0.402135C77.9228 1.03641 80.1153 2.40846 82.0642 4.43307C84.0131 6.45768 85.6768 9.09159 86.9519 12.1712C88.227 15.2508 89.0864 18.7104 89.4766 22.3349C89.8667 25.9595 89.7794 29.6717 89.22 33.2409C88.6606 36.8101 87.6411 40.16 86.2248 43.0827C89.633 46.6573 92.625 51.129 95.0696 56.3019C95.8092 57.8528 96.1272 59.8028 95.9537 61.7229C95.7802 63.6431 95.1294 65.3761 94.1445 66.5408ZM19.7164 51.9138C16.0469 53.1632 11.5877 58.3436 8.36331 65.1085C7.62159 66.6595 6.51895 67.6829 5.29795 67.9538C4.07696 68.2247 2.83763 67.7208 1.8526 66.553C0.867573 65.3851 0.217538 63.649 0.0454955 61.7266C-0.126547 59.8041 0.193495 57.8528 0.935216 56.3019C3.38094 51.1305 6.37272 46.6591 9.78003 43.0827C8.36371 40.16 7.34418 36.8101 6.78478 33.2409C6.22539 29.6717 6.13807 25.9595 6.52825 22.3349C6.91843 18.7104 7.77778 15.2508 9.05291 12.1712C10.328 9.09159 11.9917 6.45768 13.9406 4.43307C15.8895 2.40846 18.082 1.03641 20.3819 0.402135C22.6817 -0.232135 25.0399 -0.115075 27.3098 0.746044C29.5797 1.60716 31.7129 3.19395 33.577 5.40783C35.441 7.62172 36.996 10.4154 38.1454 13.6154C38.4604 14.4576 38.6651 15.3907 38.7472 16.3595C38.8294 17.3284 38.7873 18.3133 38.6236 19.2561C38.4599 20.1989 38.1778 21.0805 37.7939 21.8488C37.4101 22.617 36.9324 23.2563 36.389 23.7289C35.8456 24.2016 35.2476 24.4979 34.6302 24.6004C34.0128 24.7029 33.3887 24.6095 32.7946 24.3257C32.2006 24.042 31.6486 23.5736 31.1715 22.9483C30.6944 22.323 30.3017 21.5534 30.0167 20.6851C29.4156 18.9716 28.5613 17.5113 27.5261 16.4275C26.4908 15.3438 25.3049 14.6686 24.0689 14.459C22.8328 14.2494 21.5829 14.5115 20.4248 15.2233C19.2667 15.9351 18.2345 17.0756 17.4155 18.5482C16.5965 20.0209 16.0148 21.7824 15.7196 23.6839C15.4245 25.5853 15.4245 27.5708 15.7196 29.4722C16.0148 31.3737 16.5965 33.1352 17.4155 34.6079C18.2345 36.0805 19.2667 37.221 20.4248 37.9328C21.355 38.5034 22.1436 39.5308 22.6739 40.8625C23.2042 42.1943 23.4478 43.7595 23.3688 45.3264C23.2897 46.8933 22.8921 48.3784 22.235 49.5616C21.5778 50.7448 20.696 51.5632 19.7203 51.8955L19.7164 51.9138Z" fill="#5AAC1C"/>
</svg>
