<svg width="96" height="112" viewBox="0 0 96 112" fill="none" xmlns="http://www.w3.org/2000/svg">
<path d="M95.9999 44.3432C96.003 43.0296 95.7826 41.7283 95.3515 40.5148C94.9204 39.3013 94.2872 38.1996 93.4886 37.2736L64.0554 2.93022C63.2594 2.00125 62.3144 1.26433 61.2743 0.761555C60.2341 0.258779 59.1193 0 57.9934 0C56.8676 0 55.7527 0.258779 54.7126 0.761555C53.6725 1.26433 52.7274 2.00125 51.9315 2.93022L40.0091 16.8395L15.4785 27.574C14.0698 28.1899 12.8248 29.2275 11.8686 30.5826C10.9125 31.9376 10.2789 33.5624 10.0316 35.2937L0.0719293 105C-0.0527648 105.861 -0.0149969 106.743 0.182597 107.585C0.380191 108.427 0.732852 109.208 1.21598 109.875C1.6991 110.541 2.30105 111.076 2.97983 111.444C3.65861 111.811 4.39787 112.001 5.14603 112C5.43316 112.001 5.71988 111.975 6.00315 111.92L65.7653 100.296C67.2477 100.004 68.6387 99.2644 69.7997 98.1503C70.9606 97.0361 71.8511 95.5865 72.3822 93.9458L81.579 65.3222L93.5014 51.4129C94.2979 50.4858 94.9289 49.3836 95.3577 48.1701C95.7866 46.9565 96.0049 45.6558 95.9999 44.3432ZM63.0868 88.6511L20.1455 97.0007L34.2878 80.5015C37.3961 82.1384 40.898 82.4516 44.1838 81.3864C47.4696 80.3213 50.331 77.9453 52.2698 74.6723C54.2087 71.3992 55.102 67.4365 54.7944 63.4741C54.4867 59.5118 52.9975 55.8008 50.5861 52.9875C48.1746 50.1743 44.9938 48.4369 41.5974 48.0779C38.2011 47.719 34.8044 48.7612 31.9989 51.0232C29.1934 53.2851 27.1568 56.6234 26.2438 60.4568C25.3309 64.2901 25.5993 68.3756 27.0024 72.0019L12.86 88.5011L20.0169 38.4035L41.5733 28.974L71.1651 63.5023L63.0868 88.6511ZM36.0021 65.0022C36.0021 64.0134 36.2534 63.0467 36.7243 62.2245C37.1952 61.4023 37.8645 60.7615 38.6476 60.383C39.4307 60.0046 40.2924 59.9056 41.1237 60.0985C41.955 60.2914 42.7186 60.7676 43.318 61.4669C43.9173 62.1661 44.3255 63.057 44.4908 64.0268C44.6562 64.9967 44.5713 66.0019 44.247 66.9155C43.9226 67.8291 43.3733 68.61 42.6686 69.1594C41.9638 69.7087 41.1352 70.002 40.2876 70.002C39.151 70.002 38.061 69.4752 37.2573 68.5376C36.4536 67.5999 36.0021 66.3282 36.0021 65.0022ZM77.1434 53.5028L50.1444 22.0043L58.0041 12.8347L85.0032 44.3332L77.1434 53.5028Z" fill="#5AAC1C"/>
</svg>
