<svg width="46" height="46" viewBox="0 0 46 46" fill="none" xmlns="http://www.w3.org/2000/svg">
<path d="M41.7407 10.5811H34.0379C33.8131 7.69861 32.5528 5.00967 30.5076 3.0491C28.4624 1.08854 25.7821 0 23 0C20.2179 0 17.5376 1.08854 15.4924 3.0491C13.4472 5.00967 12.1869 7.69861 11.9621 10.5811H4.25926C3.12963 10.5811 2.04627 11.0476 1.24751 11.8778C0.448742 12.7081 0 13.8343 0 15.0085V41.5726C0 42.7468 0.448742 43.873 1.24751 44.7033C2.04627 45.5335 3.12963 46 4.25926 46H41.7407C42.8704 46 43.9537 45.5335 44.7525 44.7033C45.5513 43.873 46 42.7468 46 41.5726V15.0085C46 13.8343 45.5513 12.7081 44.7525 11.8778C43.9537 11.0476 42.8704 10.5811 41.7407 10.5811ZM23 5.26827C24.4338 5.26842 25.8195 5.80557 26.9033 6.7813C27.9871 7.75703 28.6964 9.10602 28.9012 10.5811H17.0988C17.3036 9.10602 18.0129 7.75703 19.0967 6.7813C20.1805 5.80557 21.5662 5.26842 23 5.26827ZM40.8889 40.6872H5.11111V15.8939H11.9259V18.5504C11.9259 19.2549 12.1952 19.9305 12.6744 20.4287C13.1537 20.9269 13.8037 21.2068 14.4815 21.2068C15.1593 21.2068 15.8093 20.9269 16.2885 20.4287C16.7678 19.9305 17.037 19.2549 17.037 18.5504V15.8939H28.963V18.5504C28.963 19.2549 29.2322 19.9305 29.7115 20.4287C30.1907 20.9269 30.8407 21.2068 31.5185 21.2068C32.1963 21.2068 32.8463 20.9269 33.3256 20.4287C33.8048 19.9305 34.0741 19.2549 34.0741 18.5504V15.8939H40.8889V40.6872Z" fill="#5AAC1C"/>
</svg>
